TITLE ""
FILE "DISC2Track02.mp3" MP3
  TRACK 01 AUDIO
    TITLE "DISC2Track02_01"
    INDEX 01 00:00:00
  TRACK 02 AUDIO
    TITLE "DISC2Track02_02"
    INDEX 01 00:03:75
  TRACK 03 AUDIO
    TITLE "DISC2Track02_03"
    INDEX 01 00:04:20
  TRACK 04 AUDIO
    TITLE "DISC2Track02_04"
    INDEX 01 00:07:42
  TRACK 05 AUDIO
    TITLE "DISC2Track02_05"
    INDEX 01 00:11:18
  TRACK 06 AUDIO
    TITLE "DISC2Track02_06"
    INDEX 01 00:14:65
  TRACK 07 AUDIO
    TITLE "DISC2Track02_07"
    INDEX 01 00:15:12
  TRACK 08 AUDIO
    TITLE "DISC2Track02_08"
    INDEX 01 00:18:04
  TRACK 09 AUDIO
    TITLE "DISC2Track02_09"
    INDEX 01 00:20:62
  TRACK 10 AUDIO
    TITLE "DISC2Track02_10"
    INDEX 01 00:23:31
  TRACK 11 AUDIO
    TITLE "DISC2Track02_11"
    INDEX 01 00:23:64
  TRACK 12 AUDIO
    TITLE "DISC2Track02_12"
    INDEX 01 00:25:34
  TRACK 13 AUDIO
    TITLE "DISC2Track02_13"
    INDEX 01 00:27:31
  TRACK 14 AUDIO
    TITLE "DISC2Track02_14"
    INDEX 01 00:29:18
  TRACK 15 AUDIO
    TITLE "DISC2Track02_15"
    INDEX 01 00:29:41
  TRACK 16 AUDIO
    TITLE "DISC2Track02_16"
    INDEX 01 00:33:27
  TRACK 17 AUDIO
    TITLE "DISC2Track02_17"
    INDEX 01 00:36:49
  TRACK 18 AUDIO
    TITLE "DISC2Track02_18"
    INDEX 01 00:40:02
  TRACK 19 AUDIO
    TITLE "DISC2Track02_19"
    INDEX 01 00:40:25
  TRACK 20 AUDIO
    TITLE "DISC2Track02_20"
    INDEX 01 00:42:62
  TRACK 21 AUDIO
    TITLE "DISC2Track02_21"
    INDEX 01 00:45:64
  TRACK 22 AUDIO
    TITLE "DISC2Track02_22"
    INDEX 01 00:48:58
  TRACK 23 AUDIO
    TITLE "DISC2Track02_23"
    INDEX 01 00:49:03
  TRACK 24 AUDIO
    TITLE "DISC2Track02_24"
    INDEX 01 00:52:52
  TRACK 25 AUDIO
    TITLE "DISC2Track02_25"
    INDEX 01 00:56:32
  TRACK 26 AUDIO
    TITLE "DISC2Track02_26"
    INDEX 01 01:00:07
  TRACK 27 AUDIO
    TITLE "DISC2Track02_27"
    INDEX 01 01:00:28
  TRACK 28 AUDIO
    TITLE "DISC2Track02_28"
    INDEX 01 01:04:26
  TRACK 29 AUDIO
    TITLE "DISC2Track02_29"
    INDEX 01 01:08:22
  TRACK 30 AUDIO
    TITLE "DISC2Track02_30"
    INDEX 01 01:12:10
  TRACK 31 AUDIO
    TITLE "DISC2Track02_31"
    INDEX 01 01:12:37
  TRACK 32 AUDIO
    TITLE "DISC2Track02_32"
    INDEX 01 01:16:17
  TRACK 33 AUDIO
    TITLE "DISC2Track02_33"
    INDEX 01 01:19:65
  TRACK 34 AUDIO
    TITLE "DISC2Track02_34"
    INDEX 01 01:23:27
  TRACK 35 AUDIO
    TITLE "DISC2Track02_35"
    INDEX 01 01:23:51
  TRACK 36 AUDIO
    TITLE "DISC2Track02_36"
    INDEX 01 01:26:24
  TRACK 37 AUDIO
    TITLE "DISC2Track02_37"
    INDEX 01 01:28:19
  TRACK 38 AUDIO
    TITLE "DISC2Track02_38"
    INDEX 01 01:29:75
  TRACK 39 AUDIO
    TITLE "DISC2Track02_39"
    INDEX 01 01:30:31
  TRACK 40 AUDIO
    TITLE "DISC2Track02_40"
    INDEX 01 01:35:05
  TRACK 41 AUDIO
    TITLE "DISC2Track02_41"
    INDEX 01 01:39:01
  TRACK 42 AUDIO
    TITLE "DISC2Track02_42"
    INDEX 01 01:42:66
  TRACK 43 AUDIO
    TITLE "DISC2Track02_43"
    INDEX 01 01:43:10
  TRACK 44 AUDIO
    TITLE "DISC2Track02_44"
    INDEX 01 01:46:18
  TRACK 45 AUDIO
    TITLE "DISC2Track02_45"
    INDEX 01 01:49:05
  TRACK 46 AUDIO
    TITLE "DISC2Track02_46"
    INDEX 01 01:51:63
  TRACK 47 AUDIO
    TITLE "DISC2Track02_47"
    INDEX 01 01:52:11
  TRACK 48 AUDIO
    TITLE "DISC2Track02_48"
    INDEX 01 01:56:11
  TRACK 49 AUDIO
    TITLE "DISC2Track02_49"
    INDEX 01 01:59:58
  TRACK 50 AUDIO
    TITLE "DISC2Track02_50"
    INDEX 01 02:03:15
